<?xml version="1.0" encoding="UTF-8"?>
<svg width="512pt" height="512pt" version="1.1" viewBox="0 0 512 512" xmlns="http://www.w3.org/2000/svg">
 <path d="m423.21 133.57-87.465-87.465h-0.003906c-10.375-10.434-24.496-16.277-39.207-16.234h-147.2c-20.367 0-39.902 8.0898-54.305 22.492s-22.492 33.938-22.492 54.309v298.66c0 20.371 8.0898 39.906 22.492 54.309s33.938 22.492 54.305 22.492h213.34c20.367 0 39.902-8.0898 54.305-22.492s22.492-33.938 22.492-54.309v-232.53c0.042968-14.727-5.8086-28.855-16.254-39.234zm-9.3438 271.77c0 13.582-5.3945 26.602-14.996 36.207-9.6016 9.6016-22.625 14.996-36.203 14.996h-213.34c-13.578 0-26.602-5.3945-36.203-14.996-9.6016-9.6055-14.996-22.625-14.996-36.207v-298.66c0-13.582 5.3945-26.602 14.996-36.207 9.6016-9.6016 22.625-14.996 36.203-14.996h147.2c7.9141 0.027344 15.504 3.168 21.117 8.75l87.465 87.465h0.003906c5.5781 5.6172 8.7188 13.203 8.7461 21.121zm-243.8-208.57-10.199-12.801 32.129-25.578h17.492v100.03h-21.16l0.55469-77.801c-3.5117 3.5117-5.9531 5.8164-7.3164 6.9102zm137.88-39.957c-10.375-0.71875-20.371 4.0469-26.344 12.566-6.5586 11.914-9.5195 25.473-8.5352 39.039-0.87891 13.383 2.1758 26.73 8.7891 38.398 5.8008 8.6367 15.727 13.578 26.113 12.992 10.41 0.71484 20.438-4.0586 26.453-12.586 6.5469-11.832 9.5117-25.316 8.5312-38.805 0.85547-13.391-2.2227-26.738-8.8516-38.402-5.7656-8.7227-15.715-13.742-26.156-13.203zm10.668 77.867c-1.3672 4.7617-5.7148 8.0469-10.668 8.0625-4.9414 0.039062-9.3047-3.2266-10.664-7.9766-2.5625-8.543-3.6406-17.465-3.1797-26.371-0.45703-8.9375 0.63281-17.887 3.2227-26.453 1.3594-4.7617 5.7109-8.0469 10.664-8.0469s9.3086 3.2852 10.668 8.0469c2.6719 8.5508 3.7969 17.508 3.3281 26.453 0.42969 8.8906-0.71094 17.789-3.3711 26.285zm0.42578 58.176h17.387v100.03h-21.141l0.44922-77.781c-3.5117 3.5117-5.9531 5.8164-7.3164 6.9102l-11.5 9.2383-10.199-12.801zm-117.72 0h0.003907c-10.379-0.71875-20.375 4.0469-26.348 12.562-6.5547 11.918-9.5195 25.477-8.5352 39.043-0.87891 13.383 2.1758 26.73 8.7891 38.398 5.8008 8.6367 15.727 13.574 26.113 12.992 10.41 0.71484 20.441-4.0586 26.453-12.586 6.5469-11.836 9.5117-25.316 8.5352-38.805 0.85156-13.391-2.2266-26.738-8.8555-38.402-5.7539-8.7383-15.703-13.777-26.152-13.246zm10.668 77.867c-1.3672 4.7578-5.7109 8.0469-10.664 8.0625-4.9453 0.039062-9.3086-3.2266-10.668-7.9805-2.5625-8.5391-3.6367-17.461-3.1797-26.367-0.45703-8.9375 0.63281-17.887 3.2227-26.453 1.3594-4.7617 5.7148-8.0469 10.668-8.0469 4.9531 0 9.3047 3.2852 10.664 8.0469 2.6719 8.5508 3.7969 17.508 3.3281 26.453 0.43359 8.875-0.69922 17.758-3.3477 26.242z"/>
</svg>
