<?xml version="1.0" encoding="UTF-8"?>
<svg width="512pt" height="512pt" version="1.1" viewBox="0 0 512 512" xmlns="http://www.w3.org/2000/svg">
 <path d="m423.21 133.55-87.469-87.469c-10.379-10.422-24.496-16.262-39.207-16.211h-147.2c-20.367 0-39.902 8.0898-54.305 22.492s-22.492 33.938-22.492 54.309v298.66c0 20.371 8.0898 39.906 22.492 54.309s33.938 22.492 54.305 22.492h213.34c20.367 0 39.902-8.0898 54.305-22.492s22.492-33.938 22.492-54.309v-232.53c0.046875-14.73-5.8047-28.867-16.254-39.254zm-9.3438 271.79c0 13.582-5.3945 26.602-14.996 36.207-9.6016 9.6016-22.625 14.996-36.203 14.996h-213.34c-13.578 0-26.602-5.3945-36.203-14.996-9.6016-9.6055-14.996-22.625-14.996-36.207v-298.66c0-13.582 5.3945-26.602 14.996-36.207 9.6016-9.6016 22.625-14.996 36.203-14.996h147.2c7.9141 0.027344 15.504 3.168 21.117 8.75l87.465 87.465h0.003906c5.6016 5.6016 8.7461 13.199 8.7461 21.121zm-140.8-56.215v0.003906c0 4.5234-1.7969 8.8672-5 12.066-3.1992 3.1992-7.5391 5-12.066 5s-8.8672-1.8008-12.066-5c-3.2031-3.1992-5-7.543-5-12.066 0-4.5273 1.7969-8.8672 5-12.07 3.1992-3.1992 7.5391-4.9961 12.066-4.9961s8.8672 1.7969 12.066 4.9961c3.2031 3.2031 5 7.543 5 12.07zm37.953-114.9v0.003906c-1.9258 17.973-12.789 33.762-28.887 41.984-2.082 1.2148-4.0742 2.5664-5.9727 4.0547-6.6133 5.5664-7.3828 8.8516-7.3828 10.859v12.93-0.003906c0 7.0703-5.7305 12.801-12.797 12.801-7.0703 0-12.801-5.7305-12.801-12.801v-12.93c0.70312-12.074 6.7305-23.215 16.445-30.422 2.8242-2.2617 5.7969-4.3281 8.8984-6.1836 9.6445-6.0391 15.617-10.305 17.066-21.484-0.21484-10.531-6.0312-20.152-15.258-25.234-9.2305-5.082-20.469-4.8516-29.484 0.59766-9.0156 5.4531-14.438 15.297-14.223 25.832 0.011719 7.1016-5.6992 12.891-12.801 12.969-3.3789 0.042969-6.6289-1.2695-9.0352-3.6445-2.4023-2.3711-3.7578-5.6055-3.7656-8.9844v-0.36328 0.003907c0-19.656 10.488-37.82 27.512-47.648 17.02-9.8281 37.992-9.8281 55.016 0 17.023 9.8281 27.512 27.992 27.512 47.648z"/>
</svg>
