<?xml version="1.0" encoding="UTF-8"?>
<svg width="512pt" height="512pt" version="1.1" viewBox="0 0 512 512" xmlns="http://www.w3.org/2000/svg">
 <path d="m423.21 133.57-87.465-87.465h-0.003906c-10.375-10.43-24.496-16.273-39.207-16.234h-147.2c-20.367 0-39.902 8.0898-54.305 22.492s-22.492 33.938-22.492 54.309v298.66c0 20.371 8.0898 39.906 22.492 54.309s33.938 22.492 54.305 22.492h213.34c20.367 0 39.902-8.0898 54.305-22.492s22.492-33.938 22.492-54.309v-232.53c0.042968-14.727-5.8086-28.855-16.254-39.234zm-9.3438 271.77c0 13.582-5.3945 26.602-14.996 36.207-9.6016 9.6016-22.625 14.996-36.203 14.996h-213.34c-13.578 0-26.602-5.3945-36.203-14.996-9.6016-9.6055-14.996-22.625-14.996-36.207v-298.66c0-13.582 5.3945-26.602 14.996-36.207 9.6016-9.6016 22.625-14.996 36.203-14.996h147.2c7.918 0 15.516 3.1484 21.117 8.75l87.465 87.465h0.003906c5.5781 5.6172 8.7188 13.203 8.7461 21.121zm-40.535-148.93v0.003906c-0.125-0.48828-0.28125-0.96484-0.46875-1.4297-0.25781-0.46875-0.59766-0.85156-0.875-1.3008v-0.12891c-24.367-41.367-68.797-66.758-116.81-66.758-48.012 0-92.441 25.391-116.81 66.758l-0.10547 0.17188c-0.25781 0.44922-0.59766 0.83203-0.85156 1.2812l-0.003906-0.003906c-0.18359 0.46094-0.33984 0.92969-0.46875 1.4102-0.375 0.82031-0.66016 1.6758-0.85156 2.5586-0.23438 1.5859-0.23438 3.1953 0 4.7773 0.19141 0.88281 0.47656 1.7422 0.85156 2.5625 0.12891 0.47656 0.28516 0.94922 0.46875 1.4062 0.25781 0.44922 0.59766 0.83203 0.85156 1.2812v0.14844h0.003907c24.367 41.367 68.801 66.762 116.81 66.762 48.012 0 92.441-25.395 116.81-66.762v-0.12891c0.27734-0.44922 0.61719-0.85156 0.875-1.3008 0.18359-0.46484 0.34375-0.94141 0.46875-1.4297 0.36719-0.80469 0.64453-1.6484 0.83203-2.5156 0.23438-1.5898 0.23438-3.207 0-4.8008-0.14844-0.875-0.39453-1.7344-0.72656-2.5586zm-118.25 53.91v0.003906c-36.715-0.12891-70.957-18.523-91.328-49.07 20.324-30.582 54.609-48.965 91.328-48.965 36.723 0 71.004 18.383 91.328 48.965-20.371 30.539-54.602 48.934-91.305 49.07zm0-89.324v0.003907c-10.695 0.011718-20.949 4.2695-28.508 11.84-7.5586 7.5703-11.797 17.832-11.789 28.531 0.007813 10.695 4.2617 20.949 11.828 28.512 7.5703 7.5586 17.828 11.805 28.527 11.801 10.695-0.003906 20.953-4.2578 28.516-11.82 7.5625-7.5664 11.809-17.824 11.809-28.523-0.007813-10.699-4.2656-20.957-11.832-28.52-7.5703-7.5625-17.828-11.816-28.527-11.82zm0 55.082v0.003907c-3.9102 0-7.6602-1.5508-10.422-4.3164-2.7656-2.7656-4.3203-6.5156-4.3203-10.426 0-3.9102 1.5547-7.6562 4.3203-10.422 2.7617-2.7656 6.5117-4.3164 10.422-4.3164 3.9102 0 7.6602 1.5508 10.426 4.3164 2.7617 2.7656 4.3164 6.5117 4.3164 10.422-0.003907 3.9062-1.5586 7.6484-4.3164 10.41-2.7578 2.7656-6.5 4.3203-10.402 4.332z"/>
</svg>
